<svg width="254" height="73" viewBox="0 0 254 73" fill="none" xmlns="http://www.w3.org/2000/svg">
<path d="M23.56 7.115C19.0633 8.825 15.58 11.485 13.11 15.095C10.64 18.6417 9.405 23.0117 9.405 28.205C9.405 30.5483 9.62667 32.195 10.07 33.145C10.5133 34.0317 10.735 34.5383 10.735 34.665C7.315 34.665 4.75 33.9683 3.04 32.575C1.39333 31.1183 0.57 28.7433 0.57 25.45C0.57 21.3967 2.21667 17.47 5.51 13.67C8.86667 9.80667 13.1417 6.70333 18.335 4.36C23.5283 1.95333 28.7217 0.749994 33.915 0.749994C34.8017 0.749994 36.0683 0.813329 37.715 0.939998L38.57 59.365L58.52 1.22499H70.585L71.44 59.365L91.39 1.22499H98.04L71.63 72H57.95L56.81 23.645L38.76 72H25.08L23.56 7.115ZM104.777 72.57C100.154 72.57 96.5435 71.3667 93.9468 68.96C91.3502 66.49 90.0518 62.6583 90.0518 57.465C90.0518 53.095 90.9068 48.2817 92.6168 43.025C94.3268 37.7683 97.1135 33.24 100.977 29.44C104.84 25.5767 109.749 23.645 115.702 23.645C122.669 23.645 126.152 26.685 126.152 32.765C126.152 36.3117 125.139 39.5733 123.112 42.55C121.085 45.5267 118.394 47.9333 115.037 49.77C111.68 51.5433 108.102 52.5567 104.302 52.81C104.175 54.2033 104.112 55.1533 104.112 55.66C104.112 60.9167 106.075 63.545 110.002 63.545C111.775 63.545 113.675 63.07 115.702 62.12C117.729 61.17 119.565 59.9667 121.212 58.51C119.502 67.8833 114.024 72.57 104.777 72.57ZM104.967 48.25C107.374 48.1867 109.622 47.395 111.712 45.875C113.865 44.355 115.575 42.4233 116.842 40.08C118.172 37.6733 118.837 35.1717 118.837 32.575C118.837 29.9783 118.045 28.68 116.462 28.68C114.245 28.68 112.029 30.7067 109.812 34.76C107.659 38.75 106.044 43.2467 104.967 48.25ZM148.212 8.54C144.222 8.66666 141.15 10.1867 138.997 13.1C136.907 16.0133 135.862 21.0483 135.862 28.205C135.862 30.5483 136.084 32.195 136.527 33.145C136.97 34.0317 137.192 34.5383 137.192 34.665C133.772 34.665 131.207 33.9683 129.497 32.575C127.85 31.1183 127.027 28.7433 127.027 25.45C127.027 20.9533 128.135 16.8683 130.352 13.195C132.569 9.45833 136.084 6.45 140.897 4.17C145.774 1.88999 151.949 0.749994 159.422 0.749994C160.942 0.749994 162.969 0.908328 165.502 1.22499C170.062 1.66833 173.292 1.89 175.192 1.89C178.549 1.89 181.399 1.51 183.742 0.749994C183.552 1.31999 183.204 2.58666 182.697 4.55C182.19 6.45 181.272 8.09666 179.942 9.49C178.675 10.82 176.934 11.7067 174.717 12.15C170.98 12.15 166.547 11.5483 161.417 10.345L157.427 29.25H171.297L169.777 36.28H155.907L148.212 72H134.532L148.212 8.54ZM179.18 72.57C176.14 72.57 173.67 71.62 171.77 69.72C169.934 67.82 169.015 64.97 169.015 61.17C169.015 59.5867 169.269 57.5283 169.775 54.995L179.94 7.4L194 5.5L183.075 56.8C182.822 57.75 182.695 58.7633 182.695 59.84C182.695 61.1067 182.98 62.025 183.55 62.595C184.184 63.1017 185.197 63.355 186.59 63.355C188.427 63.355 190.137 62.595 191.72 61.075C193.304 59.4917 194.444 57.465 195.14 54.995H199.13C196.787 61.835 193.779 66.49 190.105 68.96C186.432 71.3667 182.79 72.57 179.18 72.57ZM210.968 19.37C208.878 19.37 207.104 18.6417 205.648 17.185C204.191 15.7283 203.463 13.955 203.463 11.865C203.463 9.775 204.191 8.00167 205.648 6.545C207.104 5.025 208.878 4.26499 210.968 4.26499C213.058 4.26499 214.831 5.025 216.288 6.545C217.808 8.00167 218.568 9.775 218.568 11.865C218.568 13.955 217.808 15.7283 216.288 17.185C214.831 18.6417 213.058 19.37 210.968 19.37ZM204.413 72.57C201.373 72.57 198.934 71.6517 197.098 69.815C195.261 67.915 194.343 65.065 194.343 61.265C194.343 59.8083 194.596 57.7183 195.103 54.995L201.563 24.5H215.243L208.403 56.8C208.149 57.75 208.023 58.7633 208.023 59.84C208.023 62.12 209.416 63.26 212.203 63.26C214.546 63.26 217.143 62.4367 219.993 60.79C222.906 59.08 225.344 56.9267 227.308 54.33L221.893 24.5H235.288L238.993 45.02C241.843 41.98 244.059 39.13 245.643 36.47C247.226 33.81 248.018 31.625 248.018 29.915C248.018 29.345 247.986 28.965 247.923 28.775C247.036 28.9017 246.498 28.965 246.308 28.965C244.724 28.965 243.584 28.49 242.888 27.54C242.191 26.5267 241.843 25.2283 241.843 23.645C241.843 22.2517 242.349 21.175 243.363 20.415C244.376 19.5917 245.643 19.18 247.163 19.18C249.189 19.18 250.773 19.9717 251.913 21.555C253.053 23.1383 253.623 25.165 253.623 27.635C253.623 30.675 252.546 33.9683 250.393 37.515C248.303 40.9983 244.851 45.2417 240.038 50.245L240.893 54.995C241.463 58.1617 242.096 60.3467 242.793 61.55C243.553 62.7533 244.914 63.355 246.878 63.355C248.018 63.355 249.031 63.165 249.918 62.785C249.664 65.9517 248.524 68.39 246.498 70.1C244.534 71.7467 242.191 72.57 239.468 72.57C236.491 72.57 234.179 71.5883 232.533 69.625C230.949 67.5983 229.588 64.2417 228.448 59.555C225.091 63.2917 221.259 66.395 216.953 68.865C212.709 71.335 208.529 72.57 204.413 72.57Z" fill="#DA242D"/>
</svg>
